<?xml version="1.0" encoding="UTF-8" standalone="no" ?>
<!DOCTYPE svg PUBLIC "-//W3C//DTD SVG 1.1//EN" "http://www.w3.org/Graphics/SVG/1.1/DTD/svg11.dtd">
<svg xmlns="http://www.w3.org/2000/svg" xmlns:xlink="http://www.w3.org/1999/xlink" version="1.1" width="1280" height="1024" viewBox="0 0 1280 1024" xml:space="preserve">
<desc>Created with Fabric.js 3.1.0</desc>
<defs>
</defs>
<g transform="matrix(1.9692780337941629 0 0 1.9692780337941629 640.0153846153846 512.012312418764)" id="background-logo"  >
<rect style="stroke: none; stroke-width: 1; stroke-dasharray: none; stroke-linecap: butt; stroke-dashoffset: 0; stroke-linejoin: miter; stroke-miterlimit: 10; fill: rgb(255,255,255); fill-rule: nonzero; opacity: 1;"  paint-order="stroke"  x="-325" y="-260" rx="0" ry="0" width="650" height="520" />
</g>
<g transform="matrix(1.9692780337941629 0 0 1.9692780337941629 640.0153615379077 403.1848143004845)" style="" id="logo-logo"  >
	<g transform="matrix(0.1875 0 0 -0.1875 -0.05948828125002592 -88.79696250000006)"  >
<path style="stroke: none; stroke-width: 1; stroke-dasharray: none; stroke-linecap: butt; stroke-dashoffset: 0; stroke-linejoin: miter; stroke-miterlimit: 10; fill: rgb(0,0,0); fill-rule: nonzero; opacity: 1;"  paint-order="stroke"  transform=" translate(-1624.6849999999995, -1979.7150000000001)" d="m 1523.54 1932.03 l 98.59 -98.59 c 0.89 -0.88 1.71 -1.79 2.57 -2.68 c 0.87 0.89 1.66 1.8 2.55 2.68 l 98.59 98.59 c 16.68 16.7 35.6 29.9 55.76 39.72 l -156.9 156.92 l -156.93 -156.92 c 20.18 -9.82 39.09 -23.02 55.77 -39.72" stroke-linecap="round" />
</g>
	<g transform="matrix(0.1875 0 0 -0.1875 -0.00038828125002510205 88.79583750000006)"  >
<linearGradient id="SVGID_130387" gradientUnits="userSpaceOnUse" gradientTransform="matrix(1 0 0 1 1468.0900000000004 883.738)"  x1="0" y1="0" x2="0" y2="298">
<stop offset="0%" style="stop-color:rgb(23,234,217);stop-opacity: 1"/>
<stop offset="100%" style="stop-color:rgb(96,120,234);stop-opacity: 1"/>
</linearGradient>
<path style="stroke: none; stroke-width: 1; stroke-dasharray: none; stroke-linecap: butt; stroke-dashoffset: 0; stroke-linejoin: miter; stroke-miterlimit: 10; fill: url(#SVGID_130387); fill-rule: nonzero; opacity: 1;"  paint-order="stroke"  transform=" translate(-1625.0000000000005, -1032.699)" d="m 1726.15 1080.38 l -98.59 98.6 c -0.86 0.87 -1.68 1.78 -2.55 2.68 c -0.86 -0.9 -1.68 -1.81 -2.57 -2.71 l -98.59 -98.57 c -16.68 -16.69 -35.6 -29.9 -55.76 -39.71 l 156.92 -156.932 l 156.9 156.932 c -20.17 9.81 -39.08 23.02 -55.76 39.71" stroke-linecap="round" />
</g>
	<g transform="matrix(0.1875 0 0 -0.1875 65.30681171875 1.983737499999961)"  >
<path style="stroke: none; stroke-width: 1; stroke-dasharray: none; stroke-linecap: butt; stroke-dashoffset: 0; stroke-linejoin: miter; stroke-miterlimit: 10; fill: rgb(0,0,0); fill-rule: nonzero; opacity: 1;"  paint-order="stroke"  transform=" translate(-1973.2512499999998, -1495.6258750000002)" d="m 2417.57 1643.14 l -396.38 396.37 c -81.13 81.13 -213.9 81.13 -295.04 0 l -100.68 -100.68 l -0.45 0.45 l -156.92 -156.91 c 20.16 -9.83 39.08 -23.02 55.76 -39.71 l 98.59 -98.6 c 0.89 -0.88 1.71 -1.79 2.57 -2.69 c 0.87 0.9 1.66 1.81 2.55 2.69 l 98.59 98.6 c 16.52 16.52 35.22 29.59 55.16 39.39 l 0.59 -0.6 c 77.85 37.93 174.83 24.72 239.28 -39.71 l 98.59 -98.6 c 81.14 -81.13 81.14 -213.9 0 -295.04 l -98.59 -98.57 c -64.43 -64.45 -161.43 -77.65 -239.28 -39.73 l -156.9 -156.92 l 101.14 -101.13 c 81.14 -81.141 213.91 -81.141 295.04 0 l 396.38 396.36 c 81.11 81.14 81.11 213.9 0 295.03" stroke-linecap="round" />
</g>
	<g transform="matrix(0.1875 0 0 -0.1875 -65.30528828125 1.983737499999961)"  >
<linearGradient id="SVGID_130388" gradientUnits="userSpaceOnUse" gradientTransform="matrix(1 0 0 1 771.6012500000002 890.8942500000002)"  x1="0" y1="0" x2="0" y2="1209">
<stop offset="0%" style="stop-color:rgb(23,234,217);stop-opacity: 1"/>
<stop offset="100%" style="stop-color:rgb(96,120,234);stop-opacity: 1"/>
</linearGradient>
<path style="stroke: none; stroke-width: 1; stroke-dasharray: none; stroke-linecap: butt; stroke-dashoffset: 0; stroke-linejoin: miter; stroke-miterlimit: 10; fill: url(#SVGID_130388); fill-rule: nonzero; opacity: 1;"  paint-order="stroke"  transform=" translate(-1276.7606250000001, -1495.6258750000002)" d="m 1781.92 1209.57 c -20.16 9.83 -39.08 23.03 -55.76 39.73 l -98.59 98.59 c -0.86 0.87 -1.68 1.79 -2.55 2.68 c -0.86 -0.89 -1.68 -1.82 -2.57 -2.7 l -98.58 -98.57 c -16.65 -16.66 -35.51 -29.83 -55.63 -39.65 l -0.15 0.15 c -77.85 -37.91 -174.83 -24.72 -239.27 39.73 l -98.59 98.58 c -81.12 81.14 -81.12 213.9 0 295.03 l 98.59 98.6 c 64.44 64.43 161.42 77.64 239.27 39.71 l 156.92 156.91 l -101.16 101.15 c -81.14 81.13 -213.9 81.13 -295.03 0 L 832.457 1643.14 c -81.141 -81.13 -81.141 -213.89 0 -295.03 L 1228.82 951.75 c 81.13 -81.141 213.89 -81.141 295.03 0 l 101.05 101.02 l 0.12 -0.11 l 156.9 156.91" stroke-linecap="round" />
</g>
	<g transform="matrix(0.1875 0 0 -0.1875 48.548111718749965 1.9839375000000246)"  >
<path style="stroke: none; stroke-width: 1; stroke-dasharray: none; stroke-linecap: butt; stroke-dashoffset: 0; stroke-linejoin: miter; stroke-miterlimit: 10; fill: rgb(0,0,0); fill-rule: nonzero; opacity: 1;"  paint-order="stroke"  transform=" translate(-1883.8850000000002, -1495.625)" d="m 2046.88 1495.62 c 0 -90.01 -72.97 -162.99 -163 -162.99 c -90.01 0 -162.99 72.98 -162.99 162.99 c 0 90.03 72.98 163 162.99 163 c 90.03 0 163 -72.97 163 -163" stroke-linecap="round" />
</g>
	<g transform="matrix(0.1875 0 0 -0.1875 48.54991171874997 3.2140375000000176)"  >
<path style="stroke: none; stroke-width: 1; stroke-dasharray: none; stroke-linecap: butt; stroke-dashoffset: 0; stroke-linejoin: miter; stroke-miterlimit: 10; fill: rgb(255,255,255); fill-rule: nonzero; opacity: 1;"  paint-order="stroke"  transform=" translate(-1883.895, -1489.065)" d="m 1994.41 1489.07 c 0 -61.03 -49.48 -110.52 -110.53 -110.52 c -61.03 0 -110.5 49.49 -110.5 110.52 c 0 61.04 49.47 110.51 110.5 110.51 c 61.05 0 110.53 -49.47 110.53 -110.51" stroke-linecap="round" />
</g>
	<g transform="matrix(0.1875 0 0 -0.1875 39.71261171875 8.244537500000035)"  >
<path style="stroke: none; stroke-width: 1; stroke-dasharray: none; stroke-linecap: butt; stroke-dashoffset: 0; stroke-linejoin: miter; stroke-miterlimit: 10; fill: rgb(0,0,0); fill-rule: nonzero; opacity: 1;"  paint-order="stroke"  transform=" translate(-1836.77, -1462.24)" d="m 1883.9 1462.24 c 0 -26.04 -21.12 -47.12 -47.15 -47.12 c -26.03 0 -47.11 21.08 -47.11 47.12 c 0 26.03 21.08 47.12 47.11 47.12 c 26.03 0 47.15 -21.09 47.15 -47.12" stroke-linecap="round" />
</g>
	<g transform="matrix(0.1875 0 0 -0.1875 45.396611718749966 -1.9063625000000002)"  >
<linearGradient id="SVGID_130389" gradientUnits="userSpaceOnUse" gradientTransform="matrix(1 0 0 1 1836.7700000000002 1486.0500000000002)"  x1="0" y1="0" x2="0" y2="61">
<stop offset="0%" style="stop-color:rgb(23,234,217);stop-opacity: 1"/>
<stop offset="100%" style="stop-color:rgb(96,120,234);stop-opacity: 1"/>
</linearGradient>
<path style="stroke: none; stroke-width: 1; stroke-dasharray: none; stroke-linecap: butt; stroke-dashoffset: 0; stroke-linejoin: miter; stroke-miterlimit: 10; fill: url(#SVGID_130389); fill-rule: nonzero; opacity: 1;"  paint-order="stroke"  transform=" translate(-1867.0800000000002, -1516.3700000000001)" d="m 1897.39 1516.38 c 0 -16.75 -13.57 -30.33 -30.3 -30.33 c -16.75 0 -30.32 13.58 -30.32 30.33 c 0 16.73 13.57 30.31 30.32 30.31 c 16.73 0 30.3 -13.58 30.3 -30.31" stroke-linecap="round" />
</g>
	<g transform="matrix(0.1875 0 0 -0.1875 37.18381171875001 8.822137499999997)"  >
<linearGradient id="SVGID_130390" gradientUnits="userSpaceOnUse" gradientTransform="matrix(1 0 0 1 1806.46 1442.3300000000002)"  x1="0" y1="0" x2="0" y2="34">
<stop offset="0%" style="stop-color:rgb(23,234,217);stop-opacity: 1"/>
<stop offset="100%" style="stop-color:rgb(96,120,234);stop-opacity: 1"/>
</linearGradient>
<path style="stroke: none; stroke-width: 1; stroke-dasharray: none; stroke-linecap: butt; stroke-dashoffset: 0; stroke-linejoin: miter; stroke-miterlimit: 10; fill: url(#SVGID_130390); fill-rule: nonzero; opacity: 1;"  paint-order="stroke"  transform=" translate(-1823.2849999999999, -1459.16)" d="m 1840.11 1459.16 c 0 -9.29 -7.53 -16.83 -16.81 -16.83 c -9.3 0 -16.84 7.54 -16.84 16.83 c 0 9.3 7.54 16.83 16.84 16.83 c 9.28 0 16.81 -7.53 16.81 -16.83" stroke-linecap="round" />
</g>
	<g transform="matrix(0.1875 0 0 -0.1875 -48.28338828125004 1.983037500000023)"  >
<path style="stroke: none; stroke-width: 1; stroke-dasharray: none; stroke-linecap: butt; stroke-dashoffset: 0; stroke-linejoin: miter; stroke-miterlimit: 10; fill: rgb(0,0,0); fill-rule: nonzero; opacity: 1;"  paint-order="stroke"  transform=" translate(-1367.53, -1495.6299999999999)" d="m 1529.36 1495.62 c 0 -89.36 -72.46 -161.82 -161.83 -161.82 c -89.38 0 -161.83 72.46 -161.83 161.82 c 0 89.38 72.45 161.84 161.83 161.84 c 89.37 0 161.83 -72.46 161.83 -161.84" stroke-linecap="round" />
</g>
	<g transform="matrix(0.1875 0 0 -0.1875 -48.28238828125001 3.20463749999999)"  >
<path style="stroke: none; stroke-width: 1; stroke-dasharray: none; stroke-linecap: butt; stroke-dashoffset: 0; stroke-linejoin: miter; stroke-miterlimit: 10; fill: rgb(255,255,255); fill-rule: nonzero; opacity: 1;"  paint-order="stroke"  transform=" translate(-1367.5349999999999, -1489.1149999999998)" d="m 1477.26 1489.12 c 0 -60.6 -49.13 -109.73 -109.73 -109.73 c -60.6 0 -109.72 49.13 -109.72 109.73 c 0 60.6 49.12 109.72 109.72 109.72 c 60.6 0 109.73 -49.12 109.73 -109.72" stroke-linecap="round" />
</g>
	<g transform="matrix(0.1875 0 0 -0.1875 -38.885388281250016 8.24543749999998)"  >
<path style="stroke: none; stroke-width: 1; stroke-dasharray: none; stroke-linecap: butt; stroke-dashoffset: 0; stroke-linejoin: miter; stroke-miterlimit: 10; fill: rgb(0,0,0); fill-rule: nonzero; opacity: 1;"  paint-order="stroke"  transform=" translate(-1417.645, -1462.2350000000001)" d="m 1464.43 1462.24 c 0 -25.84 -20.96 -46.79 -46.79 -46.79 c -25.85 0 -46.78 20.95 -46.78 46.79 c 0 25.85 20.93 46.78 46.78 46.78 c 25.83 0 46.79 -20.93 46.79 -46.78" stroke-linecap="round" />
</g>
	<g transform="matrix(0.1875 0 0 -0.1875 -47.65798828125003 0.020337499999982356)"  >
<linearGradient id="SVGID_130391" gradientUnits="userSpaceOnUse" gradientTransform="matrix(1 0 0 1 1340.7600000000002 1475.9899999999998)"  x1="0" y1="0" x2="0" y2="60">
<stop offset="0%" style="stop-color:rgb(23,234,217);stop-opacity: 1"/>
<stop offset="100%" style="stop-color:rgb(96,120,234);stop-opacity: 1"/>
</linearGradient>
<path style="stroke: none; stroke-width: 1; stroke-dasharray: none; stroke-linecap: butt; stroke-dashoffset: 0; stroke-linejoin: miter; stroke-miterlimit: 10; fill: url(#SVGID_130391); fill-rule: nonzero; opacity: 1;"  paint-order="stroke"  transform=" translate(-1370.8650000000002, -1506.0949999999998)" d="m 1400.97 1506.1 c 0 -16.62 -13.49 -30.11 -30.1 -30.11 c -16.63 0 -30.11 13.49 -30.11 30.11 c 0 16.61 13.48 30.1 30.11 30.1 c 16.61 0 30.1 -13.49 30.1 -30.1" stroke-linecap="round" />
</g>
	<g transform="matrix(0.1875 0 0 -0.1875 -35.75168828125004 8.82113750000002)"  >
<linearGradient id="SVGID_130392" gradientUnits="userSpaceOnUse" gradientTransform="matrix(1 0 0 1 1417.6599999999999 1442.46)"  x1="0" y1="0" x2="0" y2="33">
<stop offset="0%" style="stop-color:rgb(23,234,217);stop-opacity: 1"/>
<stop offset="100%" style="stop-color:rgb(96,120,234);stop-opacity: 1"/>
</linearGradient>
<path style="stroke: none; stroke-width: 1; stroke-dasharray: none; stroke-linecap: butt; stroke-dashoffset: 0; stroke-linejoin: miter; stroke-miterlimit: 10; fill: url(#SVGID_130392); fill-rule: nonzero; opacity: 1;"  paint-order="stroke"  transform=" translate(-1434.355, -1459.165)" d="m 1451.05 1459.16 c 0 -9.22 -7.46 -16.7 -16.67 -16.7 c -9.24 0 -16.72 7.48 -16.72 16.7 c 0 9.23 7.48 16.71 16.72 16.71 c 9.21 0 16.67 -7.48 16.67 -16.71" stroke-linecap="round" />
</g>
</g>
<g transform="matrix(1.9692780337941629 0 0 1.9692780337941629 639.916987638378 745.3411446196221)" id="text-logo-path"  >
<path style="stroke: none; stroke-width: 1; stroke-dasharray: none; stroke-linecap: butt; stroke-dashoffset: 0; stroke-linejoin: miter; stroke-miterlimit: 4; fill: rgb(35,31,32); fill-rule: nonzero; opacity: 1;"  paint-order="stroke"  transform=" translate(-246.78499999999997, 24.855)" d="M 1.42 -15.25 L 1.42 -15.25 L 1.42 -34.43 Q 1.42 -37.61 2.63 -40.39 Q 3.85 -43.16 5.89 -45.22 Q 7.94 -47.29 10.71 -48.5 Q 13.49 -49.71 16.68 -49.71 L 16.68 -49.71 L 24.34 -49.71 Q 27.53 -49.71 30.3 -48.5 Q 33.07 -47.29 35.14 -45.22 Q 37.2 -43.16 38.41 -40.39 Q 39.63 -37.61 39.63 -34.43 L 39.63 -34.43 L 39.63 -15.25 L 28.19 -15.25 L 28.19 -34.43 Q 28.19 -35.99 27.09 -37.09 Q 26 -38.2 24.34 -38.2 L 24.34 -38.2 L 16.68 -38.2 Q 15.05 -38.2 13.95 -37.09 Q 12.86 -35.99 12.86 -34.43 L 12.86 -34.43 L 12.86 -15.25 Q 12.86 -13.69 13.95 -12.57 Q 15.05 -11.44 16.68 -11.44 L 16.68 -11.44 L 31.96 -11.44 L 39.63 0 L 31.96 0 L 16.68 0 Q 13.49 0 10.71 -1.21 Q 7.94 -2.43 5.89 -4.47 Q 3.85 -6.52 2.63 -9.29 Q 1.42 -12.06 1.42 -15.25 Z M 42.43 -15.25 L 42.43 -15.25 L 42.43 -49.71 L 53.87 -49.71 L 53.87 -15.25 Q 53.87 -13.69 54.97 -12.57 Q 56.06 -11.44 57.69 -11.44 L 57.69 -11.44 L 65.35 -11.44 Q 66.98 -11.44 68.09 -12.57 Q 69.2 -13.69 69.2 -15.25 L 69.2 -15.25 L 69.2 -49.71 L 80.64 -49.71 L 80.64 -15.25 Q 80.64 -12.06 79.42 -9.29 Q 78.21 -6.52 76.15 -4.47 Q 74.09 -2.43 71.33 -1.21 Q 68.57 0 65.35 0 L 65.35 0 L 57.69 0 Q 54.5 0 51.72 -1.21 Q 48.95 -2.43 46.91 -4.47 Q 44.86 -6.52 43.65 -9.29 Q 42.43 -12.06 42.43 -15.25 Z M 94.89 0 L 83.45 0 L 96.72 -49.71 L 96.86 -49.71 L 108.23 -49.71 L 108.37 -49.71 L 121.65 0 L 110.21 0 L 102.55 -28.53 L 94.89 0 Z M 135.9 0 L 124.46 0 L 124.46 -49.71 L 135.9 -49.71 L 147.37 -49.71 Q 150.56 -49.71 153.34 -48.5 Q 156.11 -47.29 158.17 -45.22 Q 160.24 -43.16 161.45 -40.39 Q 162.66 -37.61 162.66 -34.43 L 162.66 -34.43 Q 162.66 -31.72 161.78 -29.28 Q 160.89 -26.83 159.33 -24.86 L 159.33 -24.86 Q 160.89 -22.88 161.78 -20.42 Q 162.66 -17.96 162.66 -15.25 L 162.66 -15.25 L 162.66 0 L 151.22 0 L 151.22 -15.25 Q 151.22 -16.88 150.13 -17.99 Q 149.04 -19.1 147.37 -19.1 L 147.37 -19.1 L 135.9 -19.1 L 135.9 0 Z M 135.9 -38.2 L 135.9 -30.61 L 147.37 -30.61 Q 149 -30.61 150.11 -31.7 Q 151.22 -32.8 151.22 -34.43 L 151.22 -34.43 Q 151.22 -35.99 150.13 -37.09 Q 149.04 -38.2 147.37 -38.2 L 147.37 -38.2 L 135.9 -38.2 Z M 176.91 0 L 165.47 0 L 178.75 -49.71 L 178.89 -49.71 L 190.26 -49.71 L 190.4 -49.71 L 203.67 0 L 192.23 0 L 184.57 -28.53 L 176.91 0 Z M 217.92 0 L 206.48 0 L 206.48 -34.43 Q 206.48 -37.61 207.7 -40.39 Q 208.91 -43.16 210.95 -45.22 Q 213 -47.29 215.77 -48.5 Q 218.55 -49.71 221.74 -49.71 L 221.74 -49.71 L 229.4 -49.71 Q 232.59 -49.71 235.36 -48.5 Q 238.13 -47.29 240.2 -45.22 Q 242.26 -43.16 243.47 -40.39 Q 244.69 -37.61 244.69 -34.43 L 244.69 -34.43 L 244.69 0 L 233.25 0 L 233.25 -34.43 Q 233.25 -35.99 232.15 -37.13 Q 231.06 -38.27 229.4 -38.27 L 229.4 -38.27 L 221.74 -38.27 Q 220.11 -38.27 219.01 -37.13 Q 217.92 -35.99 217.92 -34.43 L 217.92 -34.43 L 217.92 0 Z M 270.41 0 L 247.49 0 L 247.49 -11.44 L 270.41 -11.44 Q 272.04 -11.51 273.15 -12.6 Q 274.26 -13.69 274.26 -15.25 L 274.26 -15.25 Q 274.26 -16.88 273.17 -17.99 Q 272.07 -19.1 270.41 -19.1 L 270.41 -19.1 L 262.75 -19.1 Q 259.56 -19.1 256.79 -20.32 Q 254.01 -21.53 251.97 -23.61 Q 249.92 -25.69 248.71 -28.46 Q 247.49 -31.24 247.49 -34.43 L 247.49 -34.43 Q 247.49 -37.61 248.71 -40.39 Q 249.92 -43.16 251.97 -45.22 Q 254.01 -47.29 256.79 -48.5 Q 259.56 -49.71 262.75 -49.71 L 262.75 -49.71 L 278.04 -49.71 L 278.04 -38.2 L 262.75 -38.2 Q 261.12 -38.2 260.03 -37.09 Q 258.94 -35.99 258.94 -34.43 L 258.94 -34.43 Q 258.94 -32.8 260.03 -31.7 Q 261.12 -30.61 262.75 -30.61 L 262.75 -30.61 L 270.41 -30.61 Q 273.6 -30.61 276.37 -29.4 Q 279.15 -28.19 281.21 -26.09 Q 283.27 -23.99 284.49 -21.22 Q 285.7 -18.44 285.7 -15.25 L 285.7 -15.25 Q 285.7 -12.06 284.49 -9.29 Q 283.27 -6.52 281.21 -4.47 Q 279.15 -2.43 276.39 -1.21 Q 273.63 0 270.41 0 L 270.41 0 Z M 293.64 -38.2 L 282.13 -38.2 L 282.13 -49.71 L 316.55 -49.71 L 316.55 -38.2 L 305.04 -38.2 L 305.04 0 L 293.64 0 L 293.64 -38.2 Z M 330.84 0 L 319.4 0 L 319.4 -49.71 L 330.84 -49.71 L 342.31 -49.71 Q 345.5 -49.71 348.27 -48.5 Q 351.05 -47.29 353.11 -45.22 Q 355.17 -43.16 356.39 -40.39 Q 357.6 -37.61 357.6 -34.43 L 357.6 -34.43 Q 357.6 -31.72 356.72 -29.28 Q 355.83 -26.83 354.27 -24.86 L 354.27 -24.86 Q 355.83 -22.88 356.72 -20.42 Q 357.6 -17.96 357.6 -15.25 L 357.6 -15.25 L 357.6 0 L 346.16 0 L 346.16 -15.25 Q 346.16 -16.88 345.07 -17.99 Q 343.98 -19.1 342.31 -19.1 L 342.31 -19.1 L 330.84 -19.1 L 330.84 0 Z M 330.84 -38.2 L 330.84 -30.61 L 342.31 -30.61 Q 343.94 -30.61 345.05 -31.7 Q 346.16 -32.8 346.16 -34.43 L 346.16 -34.43 Q 346.16 -35.99 345.07 -37.09 Q 343.98 -38.2 342.31 -38.2 L 342.31 -38.2 L 330.84 -38.2 Z M 360.41 -15.25 L 360.41 -15.25 L 360.41 -34.43 Q 360.41 -37.61 361.62 -40.39 Q 362.83 -43.16 364.88 -45.22 Q 366.93 -47.29 369.7 -48.5 Q 372.47 -49.71 375.66 -49.71 L 375.66 -49.71 L 398.61 -49.71 L 398.61 -38.2 L 375.66 -38.2 Q 374.03 -38.2 372.94 -37.09 Q 371.85 -35.99 371.85 -34.43 L 371.85 -34.43 L 371.85 -30.61 L 398.61 -30.61 L 398.61 -19.1 L 371.85 -19.1 L 371.85 -15.25 Q 371.85 -13.69 372.94 -12.57 Q 374.03 -11.44 375.66 -11.44 L 375.66 -11.44 L 398.61 -11.44 L 398.61 0 L 375.66 0 Q 372.47 0 369.7 -1.21 Q 366.93 -2.43 364.88 -4.47 Q 362.83 -6.52 361.62 -9.29 Q 360.41 -12.06 360.41 -15.25 Z M 412.86 0 L 401.42 0 L 414.7 -49.71 L 414.84 -49.71 L 426.21 -49.71 L 426.35 -49.71 L 439.62 0 L 428.18 0 L 420.52 -28.53 L 412.86 0 Z M 453.94 0 L 442.43 0 L 442.43 -34.43 Q 442.43 -37.61 443.65 -40.39 Q 444.86 -43.16 446.94 -45.22 Q 449.02 -47.29 451.79 -48.5 Q 454.57 -49.71 457.76 -49.71 L 457.76 -49.71 Q 460.46 -49.71 462.9 -48.81 Q 465.35 -47.91 467.29 -46.35 L 467.29 -46.35 Q 469.27 -47.91 471.71 -48.81 Q 474.15 -49.71 476.86 -49.71 L 476.86 -49.71 Q 480.05 -49.71 482.82 -48.5 Q 485.59 -47.29 487.66 -45.22 Q 489.72 -43.16 490.93 -40.39 Q 492.15 -37.61 492.15 -34.43 L 492.15 -34.43 L 492.15 0 L 480.71 0 L 480.71 -34.43 Q 480.71 -35.99 479.6 -37.09 Q 478.49 -38.2 476.86 -38.2 L 476.86 -38.2 Q 475.23 -38.2 474.14 -37.09 Q 473.04 -35.99 473.04 -34.43 L 473.04 -34.43 L 473.04 0 L 461.6 0 L 461.6 -34.43 Q 461.6 -35.99 460.49 -37.09 Q 459.39 -38.2 457.76 -38.2 L 457.76 -38.2 Q 456.13 -38.2 455.03 -37.09 Q 453.94 -35.99 453.94 -34.43 L 453.94 -34.43 L 453.94 0 Z" stroke-linecap="round" />
</g>
</svg>